<svg viewBox='40 450 900 20' width="500" height="500" xmlns='http://www.w3.org/2000/svg'>
  <defs>
    <linearGradient id="bg-gradient" x1="0" y1="0" x2="0.56" y2="0.1">
      <stop offset="0%" stop-color="rgb(255,140,140)"/>
      <stop offset="100%" stop-color="rgb(0,0,117)"/>
    </linearGradient>
  </defs>
  <rect x="0" y="0" width="5000" height="1000" fill="url(#bg-gradient)">
  </rect>
  <g transform="translate(50,15)">
    <rect id="rect" width="885" height="405" clip-path="url(#clip)" style="fill: none; pointer-events: all;"/>
    <g class="chartBody" clip-path="url(#clip)">
      <rect x="1.6459574176764566" y="227.23868418749987" width="3.817005545286506"
            height="8.84256581250014" stroke="white" fill="white"/>
      <rect x="7.10892038063942" y="223.0875" width="3.817005545286506" height="12.993750000000006"
            fill="white"/>
      <rect x="12.571883343602384" y="223.0875" width="3.817005545286506" height="3.8812499999999943"
            stroke="white" fill="white"/>
      <rect x="18.034846306565345" y="220.05" width="3.817005545286506" height="6.918749999999989"
            fill="white"/>
      <rect x="23.497809269528307" y="220.05" width="3.817005545286506" height="9.180065812500118"
            stroke="white" fill="white"/>
      <rect x="28.960772232491273" y="204.525" width="3.817005545286506" height="24.705065812500123"
            fill="white"/>
      <rect x="34.423735195454235" y="184.44375000000002" width="3.817005545286506"
            height="20.081249999999983" fill="white"/>
      <rect x="39.8866981584172" y="168.61503307499996" width="3.817005545286506"
            height="15.828716925000066" fill="white"/>
      <rect x="45.34966112138016" y="168.61503307499996" width="3.817005545286506"
            height="1.3162169250000204" stroke="white" fill="white"/>
      <rect x="50.81262408434312" y="169.93124999999998" width="3.817005545286506"
            height="16.33496692500006" stroke="white" fill="white"/>
      <rect x="56.27558704730608" y="171.92246692500004" width="3.817005545286506" height="14.34375"
            fill="white"/>
      <rect x="61.73855001026905" y="156.26250000000002" width="3.817005545286506"
            height="15.65996692500002" fill="white"/>
      <rect x="67.20151297323201" y="153.86621692500006" width="3.817005545286506"
            height="2.396283074999957" fill="white"/>
      <rect x="72.66447593619498" y="153.86621692500006" width="3.817005545286506"
            height="6.378717262499833" stroke="white" fill="white"/>
      <rect x="78.12743889915794" y="133.64999999999998" width="3.817005545286506"
            height="26.594934187499916" fill="white"/>
      <rect x="83.5904018621209" y="133.64999999999998" width="3.817005545286506"
            height="3.8136841874999163" stroke="white" fill="white"/>
      <rect x="89.05336482508386" y="128.0136841874999" width="3.817005545286506"
            height="9.449999999999989" fill="white"/>
      <rect x="94.51632778804682" y="127.27128307499999" width="3.817005545286506"
            height="0.7424011124999197" fill="white"/>
      <rect x="99.97929075100978" y="105.36756581250012" width="3.817005545286506"
            height="21.903717262499868" fill="white"/>
      <rect x="105.44225371397275" y="105.36756581250012" width="3.817005545286506"
            height="13.39865111249992" stroke="white" fill="white"/>
      <rect x="110.90521667693571" y="111.00371692500005" width="3.817005545286506"
            height="7.762499999999989" fill="white"/>
      <rect x="116.36817963989867" y="102.633783075" width="3.817005545286506" height="8.369933850000052"
            fill="white"/>
      <rect x="121.83114260286163" y="93.08243418749987" width="3.817005545286506"
            height="9.551348887500126" fill="white"/>
      <rect x="127.29410556582461" y="93.08243418749987" width="3.817005545286506"
            height="9.348815812500106" stroke="white" fill="white"/>
      <rect x="132.75706852878756" y="90.78749999999997" width="3.817005545286506"
            height="11.643750000000011" fill="white"/>
      <rect x="138.22003149175052" y="84.88125000000002" width="3.817005545286506"
            height="5.906249999999943" fill="white"/>
      <rect x="143.68299445471348" y="80.02128307499993" width="3.817005545286506"
            height="4.859966925000094" fill="white"/>
      <rect x="149.14595741767644" y="74.72246692500005" width="3.817005545286506"
            height="5.29881614999988" fill="white"/>
      <rect x="154.6089203806394" y="74.72246692500005" width="3.817005545286506"
            height="3.2062500000000114" stroke="white" fill="white"/>
      <rect x="160.07188334360237" y="77.92871692500006" width="3.817005545286506"
            height="4.45506614999988" stroke="white" fill="white"/>
      <rect x="165.53484630656533" y="82.38378307499994" width="3.817005545286506"
            height="10.293749999999989" stroke="white" fill="white"/>
      <rect x="170.9978092695283" y="92.67753307499993" width="3.817005545286506"
            height="8.234966925000037" stroke="white" fill="white"/>
      <rect x="176.46077223249125" y="90.85506581250013" width="3.817005545286506"
            height="10.057434187499837" fill="white"/>
      <rect x="181.9237351954542" y="90.85506581250013" width="3.817005545286506"
            height="5.197467262499856" stroke="white" fill="white"/>
      <rect x="187.38669815841718" y="90.5175658125001" width="3.817005545286506"
            height="5.53496726249989" fill="white"/>
      <rect x="192.84966112138014" y="90.5175658125001" width="3.817005545286506"
            height="29.834967262499845" stroke="white" fill="white"/>
      <rect x="198.3126240843431" y="120.35253307499994" width="3.817005545286506"
            height="9.31503273750019" stroke="white" fill="white"/>
      <rect x="203.77558704730606" y="112.89375000000001" width="3.817005545286506"
            height="16.773815812500118" fill="white"/>
      <rect x="209.23855001026902" y="110.86875000000003" width="3.817005545286506"
            height="2.0249999999999773" fill="white"/>
      <rect x="214.70151297323198" y="110.86875000000003" width="3.817005545286506"
            height="28.181249999999977" stroke="white" fill="white"/>
      <rect x="220.16447593619498" y="139.05" width="3.817005545286506" height="18.35996692500001"
            stroke="white" fill="white"/>
      <rect x="225.6274388991579" y="157.40996692500002" width="3.817005545286506"
            height="14.580066149999965" stroke="white" fill="white"/>
      <rect x="231.0904018621209" y="171.99003307499999" width="3.817005545286506"
            height="15.862499999999955" stroke="white" fill="white"/>
      <rect x="236.55336482508383" y="187.85253307499994" width="3.817005545286506"
            height="36.58496692500006" stroke="white" fill="white"/>
      <rect x="242.01632778804682" y="224.4375" width="3.817005545286506" height="65.34003307499995"
            stroke="white" fill="white"/>
      <rect x="247.47929075100976" y="243.20253307499996" width="3.817005545286506"
            height="46.57499999999999" fill="white"/>
      <rect x="252.94225371397278" y="243.20253307499996" width="3.817005545286506"
            height="36.686151112499886" stroke="white" fill="white"/>
      <rect x="258.4052166769357" y="279.88868418749985" width="3.817005545286506"
            height="26.426348887500126" stroke="white" fill="white"/>
      <rect x="263.8681796398987" y="277.72871692500007" width="3.817005545286506"
            height="28.586316149999902" fill="white"/>
      <rect x="269.33114260286163" y="277.72871692500007" width="3.817005545286506"
            height="3.07128307499994" stroke="white" fill="white"/>
      <rect x="274.7941055658246" y="265.275" width="3.817005545286506" height="15.525000000000034"
            fill="white"/>
      <rect x="280.25706852878756" y="258.2550658125001" width="3.817005545286506"
            height="7.019934187499871" fill="white"/>
      <rect x="285.72003149175055" y="238.03868418749988" width="3.817005545286506"
            height="20.216381625000224" fill="white"/>
      <rect x="291.1829944547135" y="238.03868418749988" width="3.817005545286506"
            height="15.862500000000011" stroke="white" fill="white"/>
      <rect x="296.64595741767647" y="253.9011841874999" width="3.817005545286506"
            height="0.30388162500022986" stroke="white" fill="white"/>
      <rect x="302.1089203806394" y="242.45996692500003" width="3.817005545286506"
            height="11.745098887500092" fill="white"/>
      <rect x="307.5718833436024" y="242.45996692500003" width="3.817005545286506"
            height="9.855066149999942" stroke="white" fill="white"/>
      <rect x="313.0348463065653" y="252.31503307499997" width="3.817005545286506"
            height="2.6999999999999886" stroke="white" fill="white"/>
      <rect x="318.4978092695283" y="239.75996692500004" width="3.817005545286506"
            height="15.25506614999992" fill="white"/>
      <rect x="323.96077223249125" y="239.75996692500004" width="3.817005545286506"
            height="2.396283074999957" stroke="white" fill="white"/>
      <rect x="329.42373519545424" y="242.15625" width="3.817005545286506" height="17.077533074999963"
            stroke="white" fill="white"/>
      <rect x="334.8866981584172" y="259.23378307499996" width="3.817005545286506"
            height="19.001183850000075" stroke="white" fill="white"/>
      <rect x="340.34966112138017" y="278.23496692500004" width="3.817005545286506"
            height="35.673816149999936" stroke="white" fill="white"/>
      <rect x="345.8126240843431" y="298.35" width="3.817005545286506" height="15.558783074999951"
            fill="white"/>
      <rect x="351.2755870473061" y="287.95506581250015" width="3.817005545286506"
            height="10.39493418749987" fill="white"/>
      <rect x="356.738550010269" y="284.2425658125001" width="3.817005545286506"
            height="3.712500000000034" fill="white"/>
      <rect x="362.201512973232" y="268.91993418749985" width="3.817005545286506"
            height="15.32263162500027" fill="white"/>
      <rect x="367.66447593619495" y="261.73125" width="3.817005545286506" height="7.1886841874998595"
            fill="white"/>
      <rect x="373.12743889915794" y="261.73125" width="3.817005545286506" height="3.2738158125001178"
            stroke="white" fill="white"/>
      <rect x="378.59040186212087" y="265.0050658125001" width="3.817005545286506"
            height="25.650000000000034" stroke="white" fill="white"/>
      <rect x="384.05336482508386" y="290.65506581250014" width="3.817005545286506"
            height="2.058618374999753" stroke="white" fill="white"/>
      <rect x="389.5163277880468" y="290.3175658125001" width="3.817005545286506"
            height="2.396118374999787" fill="white"/>
      <rect x="394.9792907510098" y="282.116216925" width="3.817005545286506" height="8.201348887500103"
            fill="white"/>
      <rect x="400.4422537139727" y="282.116216925" width="3.817005545286506" height="40.905066149999925"
            stroke="white" fill="white"/>
      <rect x="405.9052166769357" y="316.8113158125001" width="3.817005545286506"
            height="6.209967262499845" fill="white"/>
      <rect x="411.36817963989864" y="316.8113158125001" width="3.817005545286506"
            height="7.526184187499894" stroke="white" fill="white"/>
      <rect x="416.83114260286163" y="324.3375" width="3.817005545286506" height="29.15996692500005"
            stroke="white" fill="white"/>
      <rect x="422.29410556582457" y="353.497466925" width="3.817005545286506"
            height="10.361316149999936" stroke="white" fill="white"/>
      <rect x="427.75706852878756" y="363.85878307499996" width="3.817005545286506"
            height="11.204901112499897" stroke="white" fill="white"/>
      <rect x="433.2200314917505" y="337.466216925" width="3.817005545286506" height="37.59746726249983"
            fill="white"/>
      <rect x="438.6829944547135" y="322.4136841874999" width="3.817005545286506"
            height="15.052532737500144" fill="white"/>
      <rect x="444.14595741767647" y="318.397466925" width="3.817005545286506" height="4.016217262499879"
            fill="white"/>
      <rect x="449.60892038063946" y="318.397466925" width="3.817005545286506" height="8.808783075000008"
            stroke="white" fill="white"/>
      <rect x="455.07188334360234" y="326.025" width="3.817005545286506" height="1.181250000000034"
            fill="white"/>
      <rect x="460.5348463065653" y="270.16875" width="3.817005545286506" height="55.85624999999999"
            fill="white"/>
      <rect x="465.9978092695283" y="270.16875" width="3.817005545286506" height="5.36621692500006"
            stroke="white" fill="white"/>
      <rect x="471.4607722324913" y="271.7550658125001" width="3.817005545286506"
            height="3.7799011124999424" fill="white"/>
      <rect x="476.9237351954542" y="247.45506581250012" width="3.817005545286506"
            height="24.299999999999983" fill="white"/>
      <rect x="482.3866981584172" y="247.45506581250012" width="3.817005545286506"
            height="3.2736511124999197" stroke="white" fill="white"/>
      <rect x="487.84966112138017" y="250.3238158125001" width="3.817005545286506"
            height="0.40490111249994243" fill="white"/>
      <rect x="493.31262408434316" y="248.19746692500004" width="3.817005545286506"
            height="2.1263488875000576" fill="white"/>
      <rect x="498.77558704730603" y="248.19746692500004" width="3.817005545286506"
            height="22.409967262499862" stroke="white" fill="white"/>
      <rect x="504.238550010269" y="261.19121692500005" width="3.817005545286506"
            height="9.416217262499856" fill="white"/>
      <rect x="509.70151297323207" y="230.41131581250013" width="3.817005545286506"
            height="30.779901112499914" fill="white"/>
      <rect x="515.164475936195" y="226.49628307499995" width="3.817005545286506"
            height="3.9150327375001837" fill="white"/>
      <rect x="520.6274388991579" y="213.2324341874999" width="3.817005545286506"
            height="13.263848887500046" fill="white"/>
      <rect x="526.0904018621209" y="202.87128307499995" width="3.817005545286506"
            height="10.361151112499954" fill="white"/>
      <rect x="531.5533648250839" y="193.92753307499996" width="3.817005545286506"
            height="8.943749999999994" fill="white"/>
      <rect x="537.0163277880469" y="193.92753307499996" width="3.817005545286506"
            height="15.558782737500167" stroke="white" fill="white"/>
      <rect x="542.4792907510098" y="195.27753307499998" width="3.817005545286506"
            height="14.208782737500144" fill="white"/>
      <rect x="547.9422537139727" y="168.00743418749988" width="3.817005545286506"
            height="27.270098887500097" fill="white"/>
      <rect x="553.4052166769358" y="165.61131581250012" width="3.817005545286506"
            height="2.3961183749997588" fill="white"/>
      <rect x="558.8681796398987" y="161.86503307499999" width="3.817005545286506"
            height="3.746282737500138" fill="white"/>
      <rect x="564.3311426028616" y="154.16993418749988" width="3.817005545286506"
            height="7.695098887500109" fill="white"/>
      <rect x="569.7941055658246" y="154.16993418749988" width="3.817005545286506"
            height="13.668750000000017" stroke="white" fill="white"/>
      <rect x="575.2570685287876" y="146.10371692500007" width="3.817005545286506"
            height="21.734967262499822" fill="white"/>
      <rect x="580.7200314917505" y="146.10371692500007" width="3.817005545286506"
            height="0.43884888750000073" stroke="white" fill="white"/>
      <rect x="586.1829944547135" y="113.90625" width="3.817005545286506" height="32.63631581250007"
            fill="white"/>
      <rect x="591.6459574176764" y="100.91249999999997" width="3.817005545286506"
            height="12.993750000000034" fill="white"/>
      <rect x="597.1089203806395" y="92.94746692500001" width="3.817005545286506"
            height="7.965033074999951" fill="white"/>
      <rect x="602.5718833436024" y="92.94746692500001" width="3.817005545286506"
            height="4.590033075000008" stroke="white" fill="white"/>
      <rect x="608.0348463065653" y="93.48750000000001" width="3.817005545286506"
            height="4.050000000000011" fill="white"/>
      <rect x="613.4978092695283" y="89.70743418749987" width="3.817005545286506"
            height="3.7800658125001405" fill="white"/>
      <rect x="618.9607722324913" y="71.55000000000001" width="3.817005545286506"
            height="18.15743418749986" fill="white"/>
      <rect x="624.4237351954542" y="71.55000000000001" width="3.817005545286506"
            height="3.1050658125000723" stroke="white" fill="white"/>
      <rect x="629.8866981584172" y="47.51993418749987" width="3.817005545286506"
            height="27.135131625000213" fill="white"/>
      <rect x="635.3496611213801" y="41.34375" width="3.817005545286506" height="6.176184187499871"
            fill="white"/>
      <rect x="640.8126240843432" y="41.34375" width="3.817005545286506" height="30.07128307499994"
            stroke="white" fill="white"/>
      <rect x="646.2755870473061" y="71.41503307499994" width="3.817005545286506"
            height="24.19865111249993" stroke="white" fill="white"/>
      <rect x="651.738550010269" y="91.02381581250012" width="3.817005545286506"
            height="4.589868374999753" fill="white"/>
      <rect x="657.201512973232" y="91.02381581250012" width="3.817005545286506"
            height="32.97365111249991" stroke="white" fill="white"/>
      <rect x="662.664475936195" y="104.75996692500001" width="3.817005545286506"
            height="19.23750000000001" fill="white"/>
      <rect x="668.1274388991579" y="104.75996692500001" width="3.817005545286506"
            height="3.8474672624998902" stroke="white" fill="white"/>
      <rect x="673.5904018621209" y="100.6425658125001" width="3.817005545286506"
            height="7.96486837499981" fill="white"/>
      <rect x="679.0533648250838" y="87.31131581250008" width="3.817005545286506"
            height="13.331250000000011" fill="white"/>
      <rect x="684.5163277880469" y="87.31131581250008" width="3.817005545286506"
            height="18.39375000000001" stroke="white" fill="white"/>
      <rect x="689.9792907510098" y="97.06503307499997" width="3.817005545286506"
            height="8.640032737500121" fill="white"/>
      <rect x="695.4422537139727" y="97.06503307499997" width="3.817005545286506"
            height="2.6999999999999886" stroke="white" fill="white"/>
      <rect x="700.9052166769357" y="99.76503307499996" width="3.817005545286506"
            height="7.863683850000086" stroke="white" fill="white"/>
      <rect x="706.3681796398987" y="88.62753307499992" width="3.817005545286506"
            height="19.00118385000013" fill="white"/>
      <rect x="711.8311426028616" y="88.62753307499992" width="3.817005545286506"
            height="11.340032737500167" stroke="white" fill="white"/>
      <rect x="717.2941055658246" y="99.96756581250008" width="3.817005545286506"
            height="0.033618374999775824" stroke="white" fill="white"/>
      <rect x="722.7570685287875" y="79.04256581250013" width="3.817005545286506"
            height="20.95861837499973" fill="white"/>
      <rect x="728.2200314917505" y="79.04256581250013" width="3.817005545286506"
            height="44.51621726249982" stroke="white" fill="white"/>
      <rect x="733.6829944547135" y="123.55878307499995" width="3.817005545286506"
            height="0.8775327375001325" stroke="white" fill="white"/>
      <rect x="739.1459574176764" y="124.43631581250008" width="3.817005545286506"
            height="9.247467262499868" stroke="white" fill="white"/>
      <rect x="744.6089203806393" y="125.75253307499997" width="3.817005545286506"
            height="7.931249999999977" fill="white"/>
      <rect x="750.0718833436024" y="125.75253307499997" width="3.817005545286506"
            height="23.962499999999977" stroke="white" fill="white"/>
      <rect x="755.5348463065653" y="107.2238158125001" width="3.817005545286506"
            height="42.491217262499845" fill="white"/>
      <rect x="760.9978092695283" y="107.2238158125001" width="3.817005545286506"
            height="58.21875000000003" stroke="white" fill="white"/>
      <rect x="766.4607722324912" y="155.95878307499996" width="3.817005545286506"
            height="9.483782737500178" fill="white"/>
      <rect x="771.9237351954542" y="127.67618418749987" width="3.817005545286506"
            height="28.282598887500086" fill="white"/>
      <rect x="777.3866981584172" y="127.67618418749987" width="3.817005545286506"
            height="2.0587827375001666" stroke="white" fill="white"/>
      <rect x="782.8496611213801" y="122.54628307499996" width="3.817005545286506"
            height="7.188683850000075" fill="white"/>
      <rect x="788.312624084343" y="122.54628307499996" width="3.817005545286506"
            height="30.037499999999994" stroke="white" fill="white"/>
      <rect x="793.7755870473061" y="137.26131581250013" width="3.817005545286506"
            height="15.322467262499828" fill="white"/>
      <rect x="799.238550010269" y="137.26131581250013" width="3.817005545286506"
            height="6.817401112499908" stroke="white" fill="white"/>
      <rect x="804.701512973232" y="133.9199341874999" width="3.817005545286506"
            height="10.158782737500132" fill="white"/>
      <rect x="810.1644759361949" y="129.0261841874999" width="3.817005545286506"
            height="4.893750000000011" fill="white"/>
      <rect x="815.6274388991579" y="105.30000000000001" width="3.817005545286506"
            height="23.726184187499882" fill="white"/>
      <rect x="821.0904018621209" y="103.95000000000005" width="3.817005545286506"
            height="1.349999999999966" fill="white"/>
      <rect x="826.5533648250838" y="103.95000000000005" width="3.817005545286506"
            height="33.74999999999994" stroke="white" fill="white"/>
      <rect x="832.0163277880467" y="117.68631581250014" width="3.817005545286506"
            height="20.013684187499848" fill="white"/>
      <rect x="837.4792907510098" y="114.10878307499996" width="3.817005545286506"
            height="3.577532737500178" fill="white"/>
      <rect x="842.9422537139727" y="114.10878307499996" width="3.817005545286506"
            height="20.72246692500005" stroke="white" fill="white"/>
      <rect x="848.4052166769357" y="126.12381581250008" width="3.817005545286506"
            height="8.707434187499928" fill="white"/>
      <rect x="853.8681796398987" y="109.24881581250014" width="3.817005545286506"
            height="16.874999999999943" fill="white"/>
      <rect x="859.3311426028616" y="106.64999999999998" width="3.817005545286506"
            height="2.5988158125001632" fill="white"/>
      <rect x="864.7941055658246" y="106.64999999999998" width="3.817005545286506"
            height="1.7550658125001632" stroke="white" fill="white"/>
      <rect x="870.2570685287875" y="108.40506581250014" width="3.817005545286506"
            height="7.762499999999989" stroke="white" fill="white"/>
      <rect x="875.7200314917505" y="98.19569081250012" width="3.817005545286506"
            height="17.975171024999725" fill="white"/>
      <line x1="3.55446019031971" x2="3.55446019031971" y1="217.55253307499996" y2="240.0636841874999"
            stroke="white"/>
      <line x1="9.017423153282673" x2="9.017423153282673" y1="212.72618418749988" y2="236.08125"
            stroke="white"/>
      <line x1="14.480386116245636" x2="14.480386116245636" y1="211.30878307499998" y2="227.27246692500003"
            stroke="white"/>
      <line x1="19.9433490792086" x2="19.9433490792086" y1="212.72618418749988" y2="239.82753307499996"
            stroke="white"/>
      <line x1="25.40631204217156" x2="25.40631204217156" y1="212.0511841874999" y2="231.32246692500004"
            stroke="white"/>
      <line x1="30.869275005134526" x2="30.869275005134526" y1="198.38243418749985" y2="231.4574341874999"
            stroke="white"/>
      <line x1="36.33223796809749" x2="36.33223796809749" y1="182.79003307499997" y2="204.65996692500005"
            stroke="white"/>
      <line x1="41.79520093106045" x2="41.79520093106045" y1="168.24375" y2="186.19881581250013"
            stroke="white"/>
      <line x1="47.25816389402341" x2="47.25816389402341" y1="165.10506581250013" y2="171.24746692500003"
            stroke="white"/>
      <line x1="52.72112685698637" x2="52.72112685698637" y1="169.8636841874999" y2="186.26621692500004"
            stroke="white"/>
      <line x1="58.184089819949335" x2="58.184089819949335" y1="171.92246692500004" y2="191.09256581250014"
            stroke="white"/>
      <line x1="63.647052782912304" x2="63.647052782912304" y1="153.7988158125001" y2="171.92246692500004"
            stroke="white"/>
      <line x1="69.11001574587526" x2="69.11001574587526" y1="147.31875000000002" y2="157.24121692500003"
            stroke="white"/>
      <line x1="74.57297870883822" x2="74.57297870883822" y1="151.67246692500004" y2="164.86875"
            stroke="white"/>
      <line x1="80.03594167180118" x2="80.03594167180118" y1="131.72618418749988" y2="162.70878307499996"
            stroke="white"/>
      <line x1="85.49890463476414" x2="85.49890463476414" y1="130.14003307499996" y2="139.89375"
            stroke="white"/>
      <line x1="90.9618675977271" x2="90.9618675977271" y1="123.9636841874999" y2="139.59003307499995"
            stroke="white"/>
      <line x1="96.42483056069007" x2="96.42483056069007" y1="123.65996692500005" y2="131.6925658125001"
            stroke="white"/>
      <line x1="101.88779352365303" x2="101.88779352365303" y1="102.05996692500003" y2="128.25"
            stroke="white"/>
      <line x1="107.35075648661599" x2="107.35075648661599" y1="104.18631581250014" y2="126.866216925"
            stroke="white"/>
      <line x1="112.81371944957895" x2="112.81371944957895" y1="104.65878307499997" y2="121.33125000000001"
            stroke="white"/>
      <line x1="118.27668241254192" x2="118.27668241254192" y1="100.40625" y2="111.00371692500005"
            stroke="white"/>
      <line x1="123.73964537550488" x2="123.73964537550488" y1="91.9011841874999" y2="104.6925658125001"
            stroke="white"/>
      <line x1="129.20260833846785" x2="129.20260833846785" y1="89.977533075" y2="104.0175658125001"
            stroke="white"/>
      <line x1="134.66557130143082" x2="134.66557130143082" y1="90.07871692500004" y2="102.43124999999998"
            stroke="white"/>
      <line x1="140.12853426439378" x2="140.12853426439378" y1="82.31621692500005" y2="95.78243418749986"
            stroke="white"/>
      <line x1="145.59149722735674" x2="145.59149722735674" y1="77.96249999999998" y2="89.57246692500001"
            stroke="white"/>
      <line x1="151.0544601903197" x2="151.0544601903197" y1="69.99746692500003" y2="83.49746692500003"
            stroke="white"/>
      <line x1="156.51742315328266" x2="156.51742315328266" y1="73.03496692500005" y2="79.85253307499994"
            stroke="white"/>
      <line x1="161.98038611624563" x2="161.98038611624563" y1="70.26756581250015" y2="87.54746692500004"
            stroke="white"/>
      <line x1="167.4433490792086" x2="167.4433490792086" y1="82.38378307499994" y2="97.50371692500005"
            stroke="white"/>
      <line x1="172.90631204217155" x2="172.90631204217155" y1="87.91874999999999" y2="106.75118418749986"
            stroke="white"/>
      <line x1="178.3692750051345" x2="178.3692750051345" y1="90.5175658125001" y2="103.03868418749988"
            stroke="white"/>
      <line x1="183.83223796809747" x2="183.83223796809747" y1="87.95253307499996" y2="100.00118418749986"
            stroke="white"/>
      <line x1="189.29520093106044" x2="189.29520093106044" y1="85.9949341874999" y2="97.875"
            stroke="white"/>
      <line x1="194.7581638940234" x2="194.7581638940234" y1="90.45000000000005" y2="120.35253307499994"
            stroke="white"/>
      <line x1="200.22112685698636" x2="200.22112685698636" y1="113.94003307499992" y2="132.13125000000002"
            stroke="white"/>
      <line x1="205.68408981994932" x2="205.68408981994932" y1="112.25253307499997" y2="129.66756581250013"
            stroke="white"/>
      <line x1="211.14705278291228" x2="211.14705278291228" y1="104.89493418749987" y2="113.43378307499995"
            stroke="white"/>
      <line x1="216.61001574587524" x2="216.61001574587524" y1="110.80118418749987" y2="139.35371692500001"
            stroke="white"/>
      <line x1="222.07297870883824" x2="222.07297870883824" y1="135.33749999999998" y2="161.39256581250012"
            stroke="white"/>
      <line x1="227.53594167180117" x2="227.53594167180117" y1="150.2886841874999" y2="176.68125"
            stroke="white"/>
      <line x1="232.99890463476416" x2="232.99890463476416" y1="170.5050658125001" y2="191.59881581250013"
            stroke="white"/>
      <line x1="238.4618675977271" x2="238.4618675977271" y1="187.85253307499994" y2="224.50506581250013"
            stroke="white"/>
      <line x1="243.92483056069008" x2="243.92483056069008" y1="224.4375" y2="310.70253307499996"
            stroke="white"/>
      <line x1="249.38779352365302" x2="249.38779352365302" y1="232.36875" y2="289.77753307499995"
            stroke="white"/>
      <line x1="254.85075648661604" x2="254.85075648661604" y1="243.20253307499996" y2="283.06131581250014"
            stroke="white"/>
      <line x1="260.31371944957897" x2="260.31371944957897" y1="279.88868418749985" y2="312.8625"
            stroke="white"/>
      <line x1="265.77668241254196" x2="265.77668241254196" y1="270.033783075" y2="306.315033075"
            stroke="white"/>
      <line x1="271.2396453755049" x2="271.2396453755049" y1="268.9875" y2="281.54256581250013"
            stroke="white"/>
      <line x1="276.7026083384679" x2="276.7026083384679" y1="255.41993418749988" y2="288.32618418749985"
            stroke="white"/>
      <line x1="282.1655713014308" x2="282.1655713014308" y1="247.04999999999998" y2="267.73868418749987"
            stroke="white"/>
      <line x1="287.6285342643938" x2="287.6285342643938" y1="233.55" y2="258.2550658125001"
            stroke="white"/>
      <line x1="293.09149722735674" x2="293.09149722735674" y1="234.1574341874999" y2="256.5"
            stroke="white"/>
      <line x1="298.55446019031973" x2="298.55446019031973" y1="248.13006581250013" y2="269.29121692500007"
            stroke="white"/>
      <line x1="304.01742315328266" x2="304.01742315328266" y1="239.01756581250012" y2="263.04746692500004"
            stroke="white"/>
      <line x1="309.48038611624565" x2="309.48038611624565" y1="242.45996692500003" y2="274.1175658125001"
            stroke="white"/>
      <line x1="314.9433490792086" x2="314.9433490792086" y1="249.04121692500001" y2="262.98006581250013"
            stroke="white"/>
      <line x1="320.4063120421716" x2="320.4063120421716" y1="231.8625" y2="255.0488158125001"
            stroke="white"/>
      <line x1="325.8692750051345" x2="325.8692750051345" y1="227.475" y2="245.39628307499996"
            stroke="white"/>
      <line x1="331.3322379680975" x2="331.3322379680975" y1="238.47753307499997" y2="259.23378307499996"
            stroke="white"/>
      <line x1="336.79520093106044" x2="336.79520093106044" y1="259.23378307499996" y2="285.72753307499994"
            stroke="white"/>
      <line x1="342.2581638940234" x2="342.2581638940234" y1="278.23496692500004" y2="316.10253307499994"
            stroke="white"/>
      <line x1="347.72112685698636" x2="347.72112685698636" y1="297.26993418749987" y2="316.54121692500007"
            stroke="white"/>
      <line x1="353.18408981994935" x2="353.18408981994935" y1="270.7425658125001" y2="298.48496692500004"
            stroke="white"/>
      <line x1="358.6470527829123" x2="358.6470527829123" y1="276.5136841874999" y2="300.50996692500007"
            stroke="white"/>
      <line x1="364.1100157458753" x2="364.1100157458753" y1="265.91621692500007" y2="288.32618418749985"
            stroke="white"/>
      <line x1="369.5729787088382" x2="369.5729787088382" y1="261.4613158125001" y2="273.4761841874999"
            stroke="white"/>
      <line x1="375.0359416718012" x2="375.0359416718012" y1="251.47128307499997" y2="270.6074341874999"
            stroke="white"/>
      <line x1="380.49890463476413" x2="380.49890463476413" y1="261.866216925" y2="295.10996692500004"
            stroke="white"/>
      <line x1="385.9618675977271" x2="385.9618675977271" y1="277.93125" y2="296.0550658125001"
            stroke="white"/>
      <line x1="391.42483056069005" x2="391.42483056069005" y1="282.622466925" y2="294.60371692500007"
            stroke="white"/>
      <line x1="396.88779352365304" x2="396.88779352365304" y1="274.2863158125001" y2="293.1863158125001"
            stroke="white"/>
      <line x1="402.350756486616" x2="402.350756486616" y1="282.08243418749987" y2="325.721283075"
            stroke="white"/>
      <line x1="407.81371944957897" x2="407.81371944957897" y1="309.99375" y2="323.122466925"
            stroke="white"/>
      <line x1="413.2766824125419" x2="413.2766824125419" y1="315.32618418749985" y2="331.8300658125001"
            stroke="white"/>
      <line x1="418.7396453755049" x2="418.7396453755049" y1="324.3375" y2="366.35625" stroke="white"/>
      <line x1="424.2026083384678" x2="424.2026083384678" y1="353.4300658125001" y2="379.0125"
            stroke="white"/>
      <line x1="429.6655713014308" x2="429.6655713014308" y1="351.50625" y2="382.42128307499996"
            stroke="white"/>
      <line x1="435.12853426439375" x2="435.12853426439375" y1="323.190033075" y2="375.06368418749986"
            stroke="white"/>
      <line x1="440.59149722735674" x2="440.59149722735674" y1="322.4136841874999" y2="363.38631581250013"
            stroke="white"/>
      <line x1="446.05446019031973" x2="446.05446019031973" y1="300.408783075" y2="323.0886841874999"
            stroke="white"/>
      <line x1="451.5174231532827" x2="451.5174231532827" y1="315.5625" y2="338.5800658125001"
            stroke="white"/>
      <line x1="456.9803861162456" x2="456.9803861162456" y1="321.87381581250014" y2="347.0175658125001"
            stroke="white"/>
      <line x1="462.4433490792086" x2="462.4433490792086" y1="270.16875" y2="326.025"
            stroke="white"/>
      <line x1="467.9063120421716" x2="467.9063120421716" y1="265.275" y2="282.45371692500004"
            stroke="white"/>
      <line x1="473.36927500513457" x2="473.36927500513457" y1="266.7261841874999" y2="288.35996692500004"
            stroke="white"/>
      <line x1="478.83223796809744" x2="478.83223796809744" y1="247.45506581250012" y2="271.7550658125001"
            stroke="white"/>
      <line x1="484.29520093106044" x2="484.29520093106044" y1="246.27381581250012" y2="255.38631581250013"
            stroke="white"/>
      <line x1="489.7581638940234" x2="489.7581638940234" y1="247.52246692500003" y2="256.23006581250013"
            stroke="white"/>
      <line x1="495.2211268569864" x2="495.2211268569864" y1="244.6875" y2="253.42871692500003"
            stroke="white"/>
      <line x1="500.6840898199493" x2="500.6840898199493" y1="247.79256581250013" y2="271.51875"
            stroke="white"/>
      <line x1="506.1470527829123" x2="506.1470527829123" y1="256.36503307499993" y2="273.408783075"
            stroke="white"/>
      <line x1="511.61001574587533" x2="511.61001574587533" y1="227.60996692500004" y2="261.19121692500005"
            stroke="white"/>
      <line x1="517.0729787088383" x2="517.0729787088383" y1="222.51368418749988" y2="233.07753307499996"
            stroke="white"/>
      <line x1="522.5359416718012" x2="522.5359416718012" y1="213.2324341874999" y2="228.38631581250013"
            stroke="white"/>
      <line x1="527.9989046347641" x2="527.9989046347641" y1="201.11621692500003" y2="216.10118418749988"
            stroke="white"/>
      <line x1="533.4618675977272" x2="533.4618675977272" y1="189.13496692500004" y2="203.4113158125001"
            stroke="white"/>
      <line x1="538.9248305606901" x2="538.9248305606901" y1="193.35371692500001" y2="224.57246692500004"
            stroke="white"/>
      <line x1="544.387793523653" x2="544.387793523653" y1="195.27753307499998" y2="217.6875"
            stroke="white"/>
      <line x1="549.850756486616" x2="549.850756486616" y1="166.35371692500004" y2="195.3113158125001"
            stroke="white"/>
      <line x1="555.313719449579" x2="555.313719449579" y1="153.1574341874999" y2="169.72871692500001"
            stroke="white"/>
      <line x1="560.776682412542" x2="560.776682412542" y1="152.17871692500003" y2="166.52246692500006"
            stroke="white"/>
      <line x1="566.2396453755049" x2="566.2396453755049" y1="144.1125" y2="162.13496692500004"
            stroke="white"/>
      <line x1="571.7026083384678" x2="571.7026083384678" y1="150.11993418749987" y2="171.31503307499997"
            stroke="white"/>
      <line x1="577.1655713014309" x2="577.1655713014309" y1="145.0574341874999" y2="167.8386841874999"
            stroke="white"/>
      <line x1="582.6285342643938" x2="582.6285342643938" y1="135.50625000000002" y2="151.74003307499996"
            stroke="white"/>
      <line x1="588.0914972273567" x2="588.0914972273567" y1="113.90625" y2="146.54256581250007"
            stroke="white"/>
      <line x1="593.5544601903197" x2="593.5544601903197" y1="98.92128307499996" y2="124.334966925"
            stroke="white"/>
      <line x1="599.0174231532827" x2="599.0174231532827" y1="91.49628307499995" y2="104.05118418749987"
            stroke="white"/>
      <line x1="604.4803861162457" x2="604.4803861162457" y1="91.80000000000001" y2="105.09746692500005"
            stroke="white"/>
      <line x1="609.9433490792086" x2="609.9433490792086" y1="83.69999999999999" y2="105.46875"
            stroke="white"/>
      <line x1="615.4063120421715" x2="615.4063120421715" y1="85.89374999999995" y2="95.24256581250012"
            stroke="white"/>
      <line x1="620.8692750051346" x2="620.8692750051346" y1="71.4824341874999" y2="96.55878307499995"
            stroke="white"/>
      <line x1="626.3322379680975" x2="626.3322379680975" y1="70.40253307499995" y2="83.26131581250007"
            stroke="white"/>
      <line x1="631.7952009310604" x2="631.7952009310604" y1="44.51621692500004" y2="74.89121692500004"
            stroke="white"/>
      <line x1="637.2581638940234" x2="637.2581638940234" y1="32.56875000000002" y2="49.072466925000015"
            stroke="white"/>
      <line x1="642.7211268569864" x2="642.7211268569864" y1="41.34375" y2="79.21131581250012"
            stroke="white"/>
      <line x1="648.1840898199493" x2="648.1840898199493" y1="66.31874999999997" y2="95.61368418749987"
            stroke="white"/>
      <line x1="653.6470527829123" x2="653.6470527829123" y1="83.26131581250007" y2="100.13631581250013"
            stroke="white"/>
      <line x1="659.1100157458752" x2="659.1100157458752" y1="91.02381581250012" y2="131.38868418749985"
            stroke="white"/>
      <line x1="664.5729787088383" x2="664.5729787088383" y1="104.75996692500001" y2="128.89121692500004"
            stroke="white"/>
      <line x1="670.0359416718012" x2="670.0359416718012" y1="91.96875" y2="117.75371692500005"
            stroke="white"/>
      <line x1="675.4989046347641" x2="675.4989046347641" y1="85.48868418749987" y2="108.6074341874999"
            stroke="white"/>
      <line x1="680.9618675977271" x2="680.9618675977271" y1="76.91621692500001" y2="100.67618418749987"
            stroke="white"/>
      <line x1="686.4248305606901" x2="686.4248305606901" y1="86.23124999999999" y2="105.77246692500006"
            stroke="white"/>
      <line x1="691.887793523653" x2="691.887793523653" y1="90.95625000000001" y2="110.834966925"
            stroke="white"/>
      <line x1="697.350756486616" x2="697.350756486616" y1="82.11368418749993" y2="101.8574341874999"
            stroke="white"/>
      <line x1="702.8137194495789" x2="702.8137194495789" y1="96.42381581250015" y2="122.34375"
            stroke="white"/>
      <line x1="708.276682412542" x2="708.276682412542" y1="82.35000000000002" y2="107.62871692500005"
            stroke="white"/>
      <line x1="713.7396453755049" x2="713.7396453755049" y1="80.05506581250012" y2="100.81131581250008"
            stroke="white"/>
      <line x1="719.2026083384678" x2="719.2026083384678" y1="85.48868418749987" y2="108.94493418749988"
            stroke="white"/>
      <line x1="724.6655713014308" x2="724.6655713014308" y1="69.69375000000002" y2="118.0574341874999"
            stroke="white"/>
      <line x1="730.1285342643938" x2="730.1285342643938" y1="73.91250000000002" y2="123.55878307499995"
            stroke="white"/>
      <line x1="735.5914972273567" x2="735.5914972273567" y1="119.64375000000001" y2="134.45996692500006"
            stroke="white"/>
      <line x1="741.0544601903197" x2="741.0544601903197" y1="124.43631581250008" y2="152.28006581250014"
            stroke="white"/>
      <line x1="746.5174231532826" x2="746.5174231532826" y1="99.4949341874999" y2="133.68378307499995"
            stroke="white"/>
      <line x1="751.9803861162457" x2="751.9803861162457" y1="111.10506581250013" y2="152.51621692500004"
            stroke="white"/>
      <line x1="757.4433490792086" x2="757.4433490792086" y1="104.82753307499996" y2="149.78243418749986"
            stroke="white"/>
      <line x1="762.9063120421715" x2="762.9063120421715" y1="107.2238158125001" y2="165.94881581250013"
            stroke="white"/>
      <line x1="768.3692750051345" x2="768.3692750051345" y1="147.11621692500006" y2="165.44256581250013"
            stroke="white"/>
      <line x1="773.8322379680975" x2="773.8322379680975" y1="123.55878307499995" y2="164.7"
            stroke="white"/>
      <line x1="779.2952009310604" x2="779.2952009310604" y1="124.13243418749988" y2="143.10000000000002"
            stroke="white"/>
      <line x1="784.7581638940234" x2="784.7581638940234" y1="99.022466925" y2="129.73496692500004"
            stroke="white"/>
      <line x1="790.2211268569863" x2="790.2211268569863" y1="122.54628307499996" y2="155.01368418749988"
            stroke="white"/>
      <line x1="795.6840898199493" x2="795.6840898199493" y1="124.16621692500007" y2="153.5625"
            stroke="white"/>
      <line x1="801.1470527829123" x2="801.1470527829123" y1="137.26131581250013" y2="148.23006581250013"
            stroke="white"/>
      <line x1="806.6100157458752" x2="806.6100157458752" y1="126.6300658125001" y2="144.2136841874999"
            stroke="white"/>
      <line x1="812.0729787088381" x2="812.0729787088381" y1="124.46993418749986" y2="145.22618418749988"
            stroke="white"/>
      <line x1="817.5359416718012" x2="817.5359416718012" y1="102.09375" y2="129.0261841874999"
            stroke="white"/>
      <line x1="822.9989046347641" x2="822.9989046347641" y1="96.15371692500003" y2="108.97871692500007"
            stroke="white"/>
      <line x1="828.4618675977271" x2="828.4618675977271" y1="103.95000000000005" y2="142.35743418749985"
            stroke="white"/>
      <line x1="833.92483056069" x2="833.92483056069" y1="113.73750000000001" y2="137.7"
            stroke="white"/>
      <line x1="839.387793523653" x2="839.387793523653" y1="95.78243418749986" y2="117.68631581250014"
            stroke="white"/>
      <line x1="844.850756486616" x2="844.850756486616" y1="112.1511841874999" y2="146.8125"
            stroke="white"/>
      <line x1="850.3137194495789" x2="850.3137194495789" y1="121.12871692499999" y2="141.1425658125001"
            stroke="white"/>
      <line x1="855.776682412542" x2="855.776682412542" y1="106.07618418749985" y2="126.29256581250013"
            stroke="white"/>
      <line x1="861.2396453755049" x2="861.2396453755049" y1="100.27128307499999" y2="114.75"
            stroke="white"/>
      <line x1="866.7026083384678" x2="866.7026083384678" y1="99.29256581250013" y2="124.30118418749987"
            stroke="white"/>
      <line x1="872.1655713014308" x2="872.1655713014308" y1="108.40506581250014" y2="127.6425658125001"
            stroke="white"/>
      <line x1="877.6285342643938" x2="877.6285342643938" y1="87.53395376249989" y2="118.60092764999996"
            stroke="white"/>
    </g>
    <defs>
      <clipPath id="clip">
        <rect width="885" height="405"/>
      </clipPath>
    </defs>
  </g>
  <rect x="0" y="0" width="5000" height="1000" fill="white" fill-opacity="0.3"/>
</svg>
